<?xml version="1.0" encoding="UTF-8" standalone="no" ?>
<!DOCTYPE svg PUBLIC "-//W3C//DTD SVG 1.1//EN" "http://www.w3.org/Graphics/SVG/1.1/DTD/svg11.dtd">
<svg xmlns="http://www.w3.org/2000/svg" xmlns:xlink="http://www.w3.org/1999/xlink" version="1.1" width="1080" height="1080" viewBox="0 0 1080 1080" xml:space="preserve">
<desc>Created with Fabric.js 5.2.4</desc>
<defs>
</defs>
<g transform="matrix(1 0 0 1 540 540)" id="853c2ecf-517e-4924-9b0c-4eafcc3de1dc"  >
</g>
<g transform="matrix(1 0 0 1 540 540)" id="a93ea0c0-c808-4a4c-9da0-37add1dcd18e"  >
<rect style="stroke: none; stroke-width: 1; stroke-dasharray: none; stroke-linecap: butt; stroke-dashoffset: 0; stroke-linejoin: miter; stroke-miterlimit: 4; fill: rgb(255,255,255); fill-rule: nonzero; opacity: 1; visibility: hidden;" vector-effect="non-scaling-stroke"  x="-540" y="-540" rx="0" ry="0" width="1080" height="1080" />
</g>
<g transform="matrix(-1 0 0 1 514.29 512.93)"  >
<g style="" vector-effect="non-scaling-stroke"   >
		<g transform="matrix(33.33 0 0 33.33 -0.04 -0.04)"  >
<path style="stroke: none; stroke-width: 1; stroke-dasharray: none; stroke-linecap: butt; stroke-dashoffset: 0; stroke-linejoin: miter; stroke-miterlimit: 4; fill: none; fill-rule: nonzero; opacity: 1;" vector-effect="non-scaling-stroke"  transform=" translate(-12, -12)" d="M 24 0 L 24 24 L 0 24 L 0 0 L 24 0 Z M 12.5934901 23.257841 L 12.5819402 23.2595131 L 12.5108777 23.2950439 L 12.4918791 23.2987469 L 12.4918791 23.2987469 L 12.4767152 23.2950439 L 12.4056548 23.2595131 C 12.3958229 23.2563662 12.3870493 23.2590235 12.3821421 23.2649074 L 12.3780323 23.275831 L 12.360941 23.7031097 L 12.3658947 23.7234994 L 12.3769048 23.7357139 L 12.4804777 23.8096931 L 12.4953491 23.8136134 L 12.4953491 23.8136134 L 12.5071152 23.8096931 L 12.6106902 23.7357139 L 12.6232938 23.7196733 L 12.6232938 23.7196733 L 12.6266527 23.7031097 L 12.609561 23.275831 C 12.6075724 23.2657013 12.6010112 23.2592993 12.5934901 23.257841 L 12.5934901 23.257841 Z M 12.8583906 23.1452862 L 12.8445485 23.1473072 L 12.6598443 23.2396597 L 12.6498822 23.2499052 L 12.6498822 23.2499052 L 12.6471943 23.2611114 L 12.6650943 23.6906389 L 12.6699349 23.7034178 L 12.6699349 23.7034178 L 12.678386 23.7104931 L 12.8793402 23.8032389 C 12.8914285 23.8068999 12.9022333 23.8029875 12.9078286 23.7952264 L 12.9118235 23.7811639 L 12.8776777 23.1665331 C 12.8752882 23.1545897 12.8674102 23.1470016 12.8583906 23.1452862 L 12.8583906 23.1452862 Z M 12.1430473 23.1473072 C 12.1332178 23.1423925 12.1221763 23.1452606 12.1156365 23.1525954 L 12.1099173 23.1665331 L 12.0757714 23.7811639 C 12.0751323 23.7926639 12.0828099 23.8018602 12.0926481 23.8045676 L 12.108256 23.8032389 L 12.3092106 23.7104931 L 12.3186497 23.7024347 L 12.3186497 23.7024347 L 12.3225043 23.6906389 L 12.340401 23.2611114 L 12.337245 23.2485176 L 12.337245 23.2485176 L 12.3277531 23.2396597 L 12.1430473 23.1473072 Z" stroke-linecap="round" />
</g>
		<g transform="matrix(33.33 0 0 33.33 -25.03 -0.6)"  >
<path style="stroke: none; stroke-width: 1; stroke-dasharray: none; stroke-linecap: butt; stroke-dashoffset: 0; stroke-linejoin: miter; stroke-miterlimit: 4; fill: rgb(9,36,75); fill-rule: nonzero; opacity: 1;" vector-effect="non-scaling-stroke"  transform=" translate(-11.25, -11.98)" d="M 7.95965 7.25709 C 9.35656 6.20969 11.3117 5.74588 13.2081 6.13844 C 16.9707 6.91731 18.9332 9.929 18.9989 13.6782 C 19.0523 16.7248 17.1181 20.4774 14.1763 21.6909 C 12.4161 22.417 10.1297 21.6748 9.41342 19.8177 C 9.14612 19.1247 9.1986562 18.4516488 9.31077943 17.7743923 L 9.3915 17.322 C 9.44945 17.0085 9.50776 16.6931 9.541 16.3732 C 9.608425 15.724225 9.23701 15.3203312 8.76829234 14.9854703 L 8.52740615 14.8229775 L 8.52740615 14.8229775 L 7.97239 14.4721 L 7.97239 14.4721 L 7.7056577 14.2896426 C 7.07520406 13.838725 6.4085 13.19665 6.13179 12.0511 C 5.64736 10.0455 6.54109 8.32073 7.95965 7.25709 Z M 5 3.5 C 6.10457 3.5 7 4.39543 7 5.5 C 7 6.60457 6.10457 7.5 5 7.5 C 3.89543 7.5 3 6.60457 3 5.5 C 3 4.39543 3.89543 3.5 5 3.5 Z M 18.5 4.5 C 19.0523 4.5 19.5 4.94772 19.5 5.5 C 19.5 6.05228 19.0523 6.5 18.5 6.5 C 17.9477 6.5 17.5 6.05228 17.5 5.5 C 17.5 4.94772 17.9477 4.5 18.5 4.5 Z M 9.5 2 C 10.3284 2 11 2.67157 11 3.5 C 11 4.32843 10.3284 5 9.5 5 C 8.67157 5 8 4.32843 8 3.5 C 8 2.67157 8.67157 2 9.5 2 Z M 14.5 2 C 15.3284 2 16 2.67157 16 3.5 C 16 4.32843 15.3284 5 14.5 5 C 13.6716 5 13 4.32843 13 3.5 C 13 2.67157 13.6716 2 14.5 2 Z" stroke-linecap="round" />
</g>
</g>
</g>
</svg>